<svg xmlns="http://www.w3.org/2000/svg" xmlns:xlink="http://www.w3.org/1999/xlink" xmlns:svgjs="http://svgjs.dev/svgjs" version="1.1" viewBox="0 0 1500 1500"><rect width="1500" height="1500" fill="#ffffff"/><g transform="matrix(0.6666666666666666,0,0,0.6666666666666666,249.39393939393938,630.8165479576378)"><svg xmlns="http://www.w3.org/2000/svg" xmlns:xlink="http://www.w3.org/1999/xlink" viewBox="0 0 396 94" data-background-color="#ffffff" preserveAspectRatio="xMidYMid meet" height="356" width="1500"><g id="tight-bounds" transform="matrix(1,0,0,1,0.2400000000000091,0.20468184823900515)"><svg viewBox="0 0 395.52 93.59063630352199" height="93.59063630352199" width="395.52"><g><svg viewBox="0 0 395.52 93.59063630352199" height="93.59063630352199" width="395.52"><g transform="matrix(1,0,0,1,0,57.84276790569015)"><svg viewBox="0 0 395.52 35.74786839783184" height="35.74786839783184" width="395.52"><g id="textblocktransform"><svg viewBox="0 0 395.52 35.74786839783184" height="35.74786839783184" width="395.52" id="textblock"><g><svg viewBox="0 0 395.52 35.74786839783184" height="35.74786839783184" width="395.52"><g transform="matrix(1,0,0,1,0,0)"><svg width="395.52" viewBox="1 -35.01 387.32 35.01" height="35.74786839783184" data-palette-color="#e9c46a"><path d="M36.65-35.01L27.39 0 25.76 0 18.95-26.34 18.85-27.71 18.7-26.34 11.94 0 10.3 0 1-35.01 4.15-35.01 11.01-8.4 11.11-7.1 11.21-8.4 17.94-35.01 19.7-35.01 26.44-8.4 26.54-7.1 26.66-8.4 33.5-35.01 36.65-35.01ZM61.35 0L58.2 0 58.2-15.99 44.8-15.99 44.8 0 41.65 0 41.65-35.01 44.8-35.01 44.8-18.99 58.2-18.99 58.2-35.01 61.35-35.01 61.35 0ZM89.06 0L69.36 0 69.36-35.01 89.06-35.01 89.06-32.01 72.5-32.01 72.5-18.99 85.91-18.99 85.91-15.99 72.5-15.99 72.5-3 89.06-3 89.06 0ZM111.91-32.01L103.56-32.01 103.56 0 100.41 0 100.41-32.01 92.06-32.01 92.06-35.01 111.91-35.01 111.91-32.01ZM136.61 0L133.46 0 133.46-15.99 120.06-15.99 120.06 0 116.91 0 116.91-35.01 120.06-35.01 120.06-18.99 133.46-18.99 133.46-35.01 136.61-35.01 136.61 0ZM164.32 0L144.62 0 144.62-35.01 164.32-35.01 164.32-32.01 147.77-32.01 147.77-18.99 161.17-18.99 161.17-15.99 147.77-15.99 147.77-3 164.32-3 164.32 0ZM190.41 0L186.78 0 177.28-14.94 172.96-14.94 172.96 0 169.81 0 169.81-35.01 180.92-35.01Q182.7-35.01 184.26-34.34 185.82-33.67 187-32.5 188.17-31.32 188.84-29.75 189.51-28.17 189.51-26.39L189.51-26.39 189.51-23.56Q189.51-21.78 188.84-20.2 188.17-18.63 187-17.46 185.82-16.28 184.26-15.61 182.7-14.94 180.92-14.94L180.92-14.94 190.41 0ZM186.36-23.56L186.36-26.39Q186.36-27.56 185.92-28.58 185.48-29.59 184.73-30.36 183.97-31.13 182.96-31.57 181.94-32.01 180.77-32.01L180.77-32.01 172.96-32.01 172.96-17.94 180.77-17.94Q181.94-17.94 182.96-18.38 183.97-18.82 184.73-19.59 185.48-20.36 185.92-21.37 186.36-22.39 186.36-23.56L186.36-23.56ZM240.56-35.01L231.3 0 229.67 0 222.86-26.34 222.76-27.71 222.61-26.34 215.85 0 214.21 0 204.91-35.01 208.06-35.01 214.92-8.4 215.02-7.1 215.12-8.4 221.86-35.01 223.61-35.01 230.35-8.4 230.45-7.1 230.57-8.4 237.41-35.01 240.56-35.01ZM265.26 0L245.56 0 245.56-35.01 265.26-35.01 265.26-32.01 248.71-32.01 248.71-18.99 262.11-18.99 262.11-15.99 248.71-15.99 248.71-3 265.26-3 265.26 0ZM286.72 0L284.4-8.15 273.31-8.15 271.02 0 267.75 0 278-35.01 279.66-35.01 289.97 0 286.72 0ZM278.76-27.29L274.17-11.16 283.57-11.16 278.95-27.29 278.86-28.59 278.76-27.29ZM309.81-32.01L301.46-32.01 301.46 0 298.31 0 298.31-32.01 289.96-32.01 289.96-35.01 309.81-35.01 309.81-32.01ZM334.52 0L331.37 0 331.37-15.99 317.96-15.99 317.96 0 314.81 0 314.81-35.01 317.96-35.01 317.96-18.99 331.37-18.99 331.37-35.01 334.52-35.01 334.52 0ZM362.22 0L342.52 0 342.52-35.01 362.22-35.01 362.22-32.01 345.67-32.01 345.67-18.99 359.07-18.99 359.07-15.99 345.67-15.99 345.67-3 362.22-3 362.22 0ZM388.32 0L384.68 0 375.18-14.94 370.86-14.94 370.86 0 367.71 0 367.71-35.01 378.82-35.01Q380.6-35.01 382.17-34.34 383.73-33.67 384.9-32.5 386.07-31.32 386.74-29.75 387.42-28.17 387.42-26.39L387.42-26.39 387.42-23.56Q387.42-21.78 386.74-20.2 386.07-18.63 384.9-17.46 383.73-16.28 382.17-15.61 380.6-14.94 378.82-14.94L378.82-14.94 388.32 0ZM384.27-23.56L384.27-26.39Q384.27-27.56 383.83-28.58 383.39-29.59 382.63-30.36 381.87-31.13 380.86-31.57 379.85-32.01 378.68-32.01L378.68-32.01 370.86-32.01 370.86-17.94 378.68-17.94Q379.85-17.94 380.86-18.38 381.87-18.82 382.63-19.59 383.39-20.36 383.83-21.37 384.27-22.39 384.27-23.56L384.27-23.56Z" opacity="1" transform="matrix(1,0,0,1,0,0)" fill="#e9c46a" class="wordmark-text-0" data-fill-palette-color="primary" id="text-0"/></svg></g></svg></g></svg></g></svg></g><g transform="matrix(1,0,0,1,173.05822293709818,0)"><svg viewBox="0 0 49.4035541258036 49.4035541258036" height="49.4035541258036" width="49.4035541258036"><g><svg xmlns="http://www.w3.org/2000/svg" xmlns:xlink="http://www.w3.org/1999/xlink" version="1.1" x="0" y="0" viewBox="7.261 6.964 75.477 75.477" enable-background="new 0 0 90 90" xml:space="preserve" height="49.4035541258036" width="49.4035541258036" class="icon-icon-0" data-fill-palette-color="accent" id="icon-0"><g fill="#f4a261" data-fill-palette-color="accent"><polygon points="43.583,37.298 32.386,9.106 29.752,10.152 41.15,38.849 43.583,41.282  " fill="#f4a261" data-fill-palette-color="accent"/><polygon points="46.418,52.112 57.613,80.299 60.247,79.252 48.85,50.556 46.418,48.125  " fill="#f4a261" data-fill-palette-color="accent"/><polygon points="37.596,46.119 9.403,57.317 10.45,59.951 39.146,48.554 41.58,46.119  " fill="#f4a261" data-fill-palette-color="accent"/><polygon points="52.409,43.286 80.598,32.09 79.551,29.455 50.855,40.853 48.422,43.286  " fill="#f4a261" data-fill-palette-color="accent"/><polygon points="38.762,40.468 10.91,28.452 9.788,31.053 38.139,43.286 41.579,43.286  " fill="#f4a261" data-fill-palette-color="accent"/><polygon points="51.239,48.938 79.089,60.954 80.212,58.352 51.861,46.12 48.421,46.12  " fill="#f4a261" data-fill-palette-color="accent"/><polygon points="49.236,38.463 61.252,10.613 58.649,9.49 46.418,37.841 46.418,41.281  " fill="#f4a261" data-fill-palette-color="accent"/><polygon points="40.765,50.943 28.75,78.793 31.352,79.916 43.583,51.565 43.583,48.125  " fill="#f4a261" data-fill-palette-color="accent"/><polygon points="48.85,50.556 70.683,72.39 72.687,70.386 51.239,48.938 47.579,47.359  " fill="#f4a261" data-fill-palette-color="accent"/><polygon points="41.15,38.849 19.316,17.015 17.313,19.019 38.762,40.468 42.42,42.046  " fill="#f4a261" data-fill-palette-color="accent"/><polygon points="43.583,42.548 42.42,42.046 42.913,43.286 43.583,43.286  " fill="#f4a261" data-fill-palette-color="accent"/><polygon points="46.418,46.857 47.579,47.359 47.087,46.119 46.418,46.119  " fill="#f4a261" data-fill-palette-color="accent"/><polygon points="50.855,40.853 72.688,19.02 70.684,17.016 49.236,38.463 47.657,42.123  " fill="#f4a261" data-fill-palette-color="accent"/><polygon points="39.146,48.554 17.313,70.387 19.317,72.391 40.765,50.943 42.344,47.283  " fill="#f4a261" data-fill-palette-color="accent"/><polygon points="47.155,43.286 47.657,42.123 46.418,42.615 46.418,43.286  " fill="#f4a261" data-fill-palette-color="accent"/><polygon points="42.846,46.119 42.344,47.283 43.583,46.791 43.583,46.119  " fill="#f4a261" data-fill-palette-color="accent"/><polygon points="82.738,43.286 52.409,43.286 48.704,44.757 51.861,46.12 82.738,46.12  " fill="#f4a261" data-fill-palette-color="accent"/><polygon points="38.139,43.286 7.261,43.286 7.261,46.119 37.596,46.119 41.298,44.649  " fill="#f4a261" data-fill-palette-color="accent"/><polygon points="42.475,44.182 41.298,44.649 42.522,45.177 42.997,44.703  " fill="#f4a261" data-fill-palette-color="accent"/><polygon points="47.005,44.704 47.526,45.225 48.704,44.757 47.479,44.229  " fill="#f4a261" data-fill-palette-color="accent"/><polygon points="42.913,43.286 41.579,43.286 42.475,44.182 43.16,43.909  " fill="#f4a261" data-fill-palette-color="accent"/><polygon points="47.087,46.119 48.421,46.12 47.526,45.225 46.84,45.498  " fill="#f4a261" data-fill-palette-color="accent"/><polygon points="43.583,43.741 43.16,43.909 43.339,44.36 43.583,44.116  " fill="#f4a261" data-fill-palette-color="accent"/><polygon points="46.418,45.666 46.84,45.498 46.661,45.047 46.418,45.29  " fill="#f4a261" data-fill-palette-color="accent"/><polygon points="42.522,45.177 41.58,46.119 42.846,46.119 43.138,45.443  " fill="#f4a261" data-fill-palette-color="accent"/><polygon points="47.479,44.229 48.422,43.286 47.155,43.286 46.863,43.963  " fill="#f4a261" data-fill-palette-color="accent"/><polygon points="43.318,45.025 43.138,45.443 43.583,45.635 43.583,45.29  " fill="#f4a261" data-fill-palette-color="accent"/><polygon points="46.683,44.382 46.863,43.963 46.418,43.771 46.418,44.117  " fill="#f4a261" data-fill-palette-color="accent"/><polygon points="46.534,44.727 46.661,45.047 47.005,44.704 46.683,44.382  " fill="#f4a261" data-fill-palette-color="accent"/><polygon points="43.339,44.36 42.997,44.703 43.318,45.025 43.467,44.681  " fill="#f4a261" data-fill-palette-color="accent"/><polygon points="46.418,44.996 46.534,44.727 46.418,44.435  " fill="#f4a261" data-fill-palette-color="accent"/><polygon points="43.467,44.681 43.583,44.976 43.583,44.41  " fill="#f4a261" data-fill-palette-color="accent"/><polygon points="46.418,37.841 46.418,6.964 43.583,6.964 43.583,37.298 45.054,41.001  " fill="#f4a261" data-fill-palette-color="accent"/><polygon points="43.583,51.565 43.583,82.441 46.418,82.441 46.418,52.112 44.946,48.407  " fill="#f4a261" data-fill-palette-color="accent"/><polygon points="45.521,42.178 45.054,41.001 44.526,42.225 45,42.699  " fill="#f4a261" data-fill-palette-color="accent"/><polygon points="44.479,47.229 44.946,48.407 45.475,47.182 45.001,46.707  " fill="#f4a261" data-fill-palette-color="accent"/><polygon points="44.526,42.225 43.583,41.282 43.583,42.548 44.261,42.841  " fill="#f4a261" data-fill-palette-color="accent"/><polygon points="45.475,47.182 46.418,48.125 46.418,46.857 45.741,46.565  " fill="#f4a261" data-fill-palette-color="accent"/><polygon points="45.323,46.386 45.741,46.565 45.933,46.119 45.589,46.119  " fill="#f4a261" data-fill-palette-color="accent"/><polygon points="44.679,43.021 44.261,42.841 44.069,43.286 44.414,43.286  " fill="#f4a261" data-fill-palette-color="accent"/><polygon points="43.583,46.791 43.583,48.125 44.479,47.229 44.207,46.544  " fill="#f4a261" data-fill-palette-color="accent"/><polygon points="46.418,42.615 46.418,41.281 45.521,42.178 45.794,42.863  " fill="#f4a261" data-fill-palette-color="accent"/><polygon points="44.038,46.119 44.207,46.544 44.658,46.364 44.413,46.119  " fill="#f4a261" data-fill-palette-color="accent"/><polygon points="45.962,43.286 45.794,42.863 45.343,43.042 45.587,43.286  " fill="#f4a261" data-fill-palette-color="accent"/><polygon points="44.658,46.364 45.001,46.707 45.323,46.386 44.979,46.237  " fill="#f4a261" data-fill-palette-color="accent"/><polygon points="45.343,43.042 45,42.699 44.679,43.021 45.023,43.169  " fill="#f4a261" data-fill-palette-color="accent"/><polygon points="44.979,46.237 45.274,46.119 44.707,46.119  " fill="#f4a261" data-fill-palette-color="accent"/><polygon points="45.023,43.169 44.729,43.286 45.293,43.286  " fill="#f4a261" data-fill-palette-color="accent"/><polygon points="44.069,43.286 43.583,43.286 43.583,43.741 43.932,43.603  " fill="#f4a261" data-fill-palette-color="accent"/><polygon points="45.933,46.119 46.418,46.119 46.418,45.666 46.069,45.804  " fill="#f4a261" data-fill-palette-color="accent"/><polygon points="46.069,45.804 46.194,45.514 45.796,45.913  " fill="#f4a261" data-fill-palette-color="accent"/><polygon points="43.932,43.603 43.807,43.893 44.205,43.494  " fill="#f4a261" data-fill-palette-color="accent"/><polygon points="43.583,45.635 43.583,46.119 44.038,46.119 43.899,45.771  " fill="#f4a261" data-fill-palette-color="accent"/><polygon points="46.418,43.771 46.418,43.286 45.962,43.286 46.1,43.634  " fill="#f4a261" data-fill-palette-color="accent"/><polygon points="43.899,45.771 44.19,45.896 43.791,45.497  " fill="#f4a261" data-fill-palette-color="accent"/><polygon points="46.1,43.634 45.81,43.509 46.209,43.908  " fill="#f4a261" data-fill-palette-color="accent"/><polygon points="46.418,45.29 46.418,44.996 46.194,45.514  " fill="#f4a261" data-fill-palette-color="accent"/><polygon points="43.583,44.116 43.583,44.41 43.807,43.893  " fill="#f4a261" data-fill-palette-color="accent"/><polygon points="45.587,43.286 45.293,43.286 45.81,43.509  " fill="#f4a261" data-fill-palette-color="accent"/><polygon points="44.413,46.119 44.707,46.119 44.19,45.896  " fill="#f4a261" data-fill-palette-color="accent"/><polygon points="45.589,46.119 45.796,45.913 45.274,46.119  " fill="#f4a261" data-fill-palette-color="accent"/><polygon points="44.414,43.286 44.205,43.494 44.729,43.286  " fill="#f4a261" data-fill-palette-color="accent"/><polygon points="43.583,45.29 43.791,45.497 43.583,44.976  " fill="#f4a261" data-fill-palette-color="accent"/><polygon points="46.418,44.117 46.209,43.908 46.418,44.435  " fill="#f4a261" data-fill-palette-color="accent"/></g></svg></g></svg></g><g/></svg></g><defs/></svg><rect width="395.52" height="93.59063630352199" fill="none" stroke="none" visibility="hidden"/></g></svg></g></svg>